<svg xmlns="http://www.w3.org/2000/svg" viewBox="0 0 520 400" width="1000" height="400" preserveAspectRatio="xMidYMid meet" style="width: 100%; height: 100%; transform: translate3d(0px, 0px, 0px); content-visibility: visible;"><defs><clipPath id="__lottie_element_483"><rect width="520" height="400" x="0" y="0"></rect></clipPath></defs><g clip-path="url(#__lottie_element_483)"><g transform="matrix(1,0,0,1,40.01300048828125,126.44200134277344)" opacity="1" style="display: block;"><g opacity="1" transform="matrix(1,0,0,1,0,0)"><path fill="rgb(204,231,255)" fill-opacity="1" d=" M14.571999549865723,0 C14.571999549865723,-8.04800033569336 8.04800033569336,-14.571999549865723 0,-14.571999549865723 C-8.04800033569336,-14.571999549865723 -14.571999549865723,-8.04800033569336 -14.571999549865723,0 C-14.571999549865723,8.04800033569336 -8.04800033569336,14.571999549865723 0,14.571999549865723 C8.04800033569336,14.571999549865723 14.571999549865723,8.04800033569336 14.571999549865723,0z"></path></g></g><g transform="matrix(1,0,0,1,71.49700164794922,31.990999221801758)" opacity="1" style="display: block;"><g opacity="1" transform="matrix(1,0,0,1,0,0)"><path fill="rgb(204,231,255)" fill-opacity="1" d=" M14.571999549865723,0 C14.571999549865723,-8.04800033569336 8.04800033569336,-14.571999549865723 0,-14.571999549865723 C-8.04800033569336,-14.571999549865723 -14.571999549865723,-8.04800033569336 -14.571999549865723,0 C-14.571999549865723,8.04800033569336 -8.04800033569336,14.571999549865723 0,14.571999549865723 C8.04800033569336,14.571999549865723 14.571999549865723,8.04800033569336 14.571999549865723,0z"></path></g></g><g transform="matrix(1,0,0,1,36.44499969482422,265.5400085449219)" opacity="1" style="display: block;"><g opacity="1" transform="matrix(1,0,0,1,0,0)"><path fill="rgb(204,231,255)" fill-opacity="1" d=" M14.571999549865723,0 C14.571999549865723,-8.04800033569336 8.04800033569336,-14.571999549865723 0,-14.571999549865723 C-8.04800033569336,-14.571999549865723 -14.571999549865723,-8.04800033569336 -14.571999549865723,0 C-14.571999549865723,8.04800033569336 -8.04800033569336,14.571999549865723 0,14.571999549865723 C8.04800033569336,14.571999549865723 14.571999549865723,8.04800033569336 14.571999549865723,0z"></path></g></g><g transform="matrix(1,0,0,1,432.52801513671875,39.731998443603516)" opacity="1" style="display: block;"><g opacity="1" transform="matrix(1,0,0,1,0,0)"><path fill="rgb(204,231,255)" fill-opacity="1" d=" M14.571999549865723,0 C14.571999549865723,-8.04800033569336 8.04800033569336,-14.571999549865723 0,-14.571999549865723 C-8.04800033569336,-14.571999549865723 -14.571999549865723,-8.04800033569336 -14.571999549865723,0 C-14.571999549865723,8.04800033569336 -8.04800033569336,14.571999549865723 0,14.571999549865723 C8.04800033569336,14.571999549865723 14.571999549865723,8.04800033569336 14.571999549865723,0z"></path></g></g><g transform="matrix(1,0,0,1,484.39898681640625,97.02300262451172)" opacity="1" style="display: block;"><g opacity="1" transform="matrix(1,0,0,1,0,0)"><path fill="rgb(204,231,255)" fill-opacity="1" d=" M14.571999549865723,0 C14.571999549865723,-8.04800033569336 8.04800033569336,-14.571999549865723 0,-14.571999549865723 C-8.04800033569336,-14.571999549865723 -14.571999549865723,-8.04800033569336 -14.571999549865723,0 C-14.571999549865723,8.04800033569336 -8.04800033569336,14.571999549865723 0,14.571999549865723 C8.04800033569336,14.571999549865723 14.571999549865723,8.04800033569336 14.571999549865723,0z"></path></g></g><g transform="matrix(1,0,0,1,475.1090087890625,341.6669921875)" opacity="1" style="display: block;"><g opacity="1" transform="matrix(1,0,0,1,0,0)"><path fill="rgb(204,231,255)" fill-opacity="1" d=" M14.571999549865723,0 C14.571999549865723,-8.04800033569336 8.04800033569336,-14.571999549865723 0,-14.571999549865723 C-8.04800033569336,-14.571999549865723 -14.571999549865723,-8.04800033569336 -14.571999549865723,0 C-14.571999549865723,8.04800033569336 -8.04800033569336,14.571999549865723 0,14.571999549865723 C8.04800033569336,14.571999549865723 14.571999549865723,8.04800033569336 14.571999549865723,0z"></path></g></g><g transform="matrix(1,0,0,1,52.01300048828125,371.8609924316406)" opacity="1" style="display: block;"><g opacity="1" transform="matrix(1,0,0,1,0,0)"><path fill="rgb(204,231,255)" fill-opacity="1" d=" M14.571999549865723,0 C14.571999549865723,-8.04800033569336 8.04800033569336,-14.571999549865723 0,-14.571999549865723 C-8.04800033569336,-14.571999549865723 -14.571999549865723,-8.04800033569336 -14.571999549865723,0 C-14.571999549865723,8.04800033569336 -8.04800033569336,14.571999549865723 0,14.571999549865723 C8.04800033569336,14.571999549865723 14.571999549865723,8.04800033569336 14.571999549865723,0z"></path></g></g><g transform="matrix(1,0,0,1,367.88299560546875,254.4810028076172)" opacity="1" style="display: block;"><g opacity="1" transform="matrix(1,0,0,1,0,0)"><path stroke-linecap="butt" stroke-linejoin="miter" fill-opacity="0" stroke-miterlimit="10" stroke="rgb(1,136,255)" stroke-opacity="1" stroke-width="2" d=" M-42.19300079345703,49.250999450683594 C-42.19300079345703,49.250999450683594 42.19300079345703,-49.250999450683594 42.19300079345703,-49.250999450683594"></path></g></g><g transform="matrix(1,0,0,1,425.239013671875,237.0399932861328)" opacity="1" style="display: block;"><g opacity="1" transform="matrix(1,0,0,1,0,0)"><path stroke-linecap="butt" stroke-linejoin="miter" fill-opacity="0" stroke-miterlimit="10" stroke="rgb(1,136,255)" stroke-opacity="1" stroke-width="2" d=" M15.161999702453613,31.81100082397461 C15.161999702453613,31.81100082397461 -15.161999702453613,-31.81100082397461 -15.161999702453613,-31.81100082397461"></path></g></g><g transform="matrix(1,0,0,1,366.6910095214844,314.1409912109375)" opacity="1" style="display: block;"><g opacity="1" transform="matrix(1,0,0,1,0,0)"><path stroke-linecap="butt" stroke-linejoin="miter" fill-opacity="0" stroke-miterlimit="10" stroke="rgb(1,136,255)" stroke-opacity="1" stroke-width="2" d=" M-41.000999450683594,-10.40999984741211 C-41.000999450683594,-10.40999984741211 41.000999450683594,10.40999984741211 41.000999450683594,10.40999984741211"></path></g></g><g transform="matrix(1,0,0,1,279.2380065917969,333.447998046875)" opacity="1" style="display: block;"><g opacity="1" transform="matrix(1,0,0,1,0,0)"><path stroke-linecap="butt" stroke-linejoin="miter" fill-opacity="0" stroke-miterlimit="10" stroke="rgb(1,136,255)" stroke-opacity="1" stroke-width="2" d=" M-46.45199966430664,29.715999603271484 C-46.45199966430664,29.715999603271484 46.45199966430664,-29.715999603271484 46.45199966430664,-29.715999603271484"></path></g></g><g transform="matrix(1,0,0,1,220.01300048828125,312.8420104980469)" opacity="1" style="display: block;"><g opacity="1" transform="matrix(1,0,0,1,0,0)"><path stroke-linecap="butt" stroke-linejoin="miter" fill-opacity="0" stroke-miterlimit="10" stroke="rgb(1,136,255)" stroke-opacity="1" stroke-width="2" d=" M-12.77400016784668,-50.321998596191406 C-12.77400016784668,-50.321998596191406 12.77400016784668,50.321998596191406 12.77400016784668,50.321998596191406"></path></g></g><g transform="matrix(1,0,0,1,169.4320068359375,239.38400268554688)" opacity="1" style="display: block;"><g opacity="1" transform="matrix(1,0,0,1,0,0)"><path stroke-linecap="butt" stroke-linejoin="miter" fill-opacity="0" stroke-miterlimit="10" stroke="rgb(1,136,255)" stroke-opacity="1" stroke-width="2" d=" M-37.805999755859375,-23.13599967956543 C-37.805999755859375,-23.13599967956543 37.805999755859375,23.13599967956543 37.805999755859375,23.13599967956543"></path></g></g><g transform="matrix(1,0,0,1,139.23899841308594,266.37701416015625)" opacity="1" style="display: block;"><g opacity="1" transform="matrix(1,0,0,1,0,0)"><path stroke-linecap="butt" stroke-linejoin="miter" fill-opacity="0" stroke-miterlimit="10" stroke="rgb(1,136,255)" stroke-opacity="1" stroke-width="2" d=" M-7.61299991607666,-50.12900161743164 C-7.61299991607666,-50.12900161743164 7.61299991607666,50.12900161743164 7.61299991607666,50.12900161743164"></path></g></g><g transform="matrix(1,0,0,1,101.51799774169922,231.83999633789062)" opacity="1" style="display: block;"><g opacity="1" transform="matrix(1,0,0,1,0,0)"><path stroke-linecap="butt" stroke-linejoin="miter" fill-opacity="0" stroke-miterlimit="10" stroke="rgb(1,136,255)" stroke-opacity="1" stroke-width="2" d=" M30.107999801635742,-15.592000007629395 C30.107999801635742,-15.592000007629395 -30.107999801635742,15.592000007629395 -30.107999801635742,15.592000007629395"></path></g></g><g transform="matrix(1,0,0,1,141.41000366210938,170.30999755859375)" opacity="1" style="display: block;"><g opacity="1" transform="matrix(1,0,0,1,0,0)"><path stroke-linecap="butt" stroke-linejoin="miter" fill-opacity="0" stroke-miterlimit="10" stroke="rgb(1,136,255)" stroke-opacity="1" stroke-width="2" d=" M9.78499984741211,-45.9379997253418 C9.78499984741211,-45.9379997253418 -9.78499984741211,45.9379997253418 -9.78499984741211,45.9379997253418"></path></g></g><g transform="matrix(1,0,0,1,115.65299987792969,125.03399658203125)" opacity="1" style="display: block;"><g opacity="1" transform="matrix(1,0,0,1,0,0)"><path stroke-linecap="butt" stroke-linejoin="miter" fill-opacity="0" stroke-miterlimit="10" stroke="rgb(1,136,255)" stroke-opacity="1" stroke-width="2" d=" M35.54199981689453,-0.6610000133514404 C35.54199981689453,-0.6610000133514404 -35.54199981689453,0.6610000133514404 -35.54199981689453,0.6610000133514404"></path></g></g><g transform="matrix(1,0,0,1,203.2169952392578,114.18199920654297)" opacity="1" style="display: block;"><g opacity="1" transform="matrix(1,0,0,1,0,0)"><path stroke-linecap="butt" stroke-linejoin="miter" fill-opacity="0" stroke-miterlimit="10" stroke="rgb(1,136,255)" stroke-opacity="1" stroke-width="2" d=" M52.02199935913086,-10.190999984741211 C52.02199935913086,-10.190999984741211 -52.02199935913086,10.190999984741211 -52.02199935913086,10.190999984741211"></path></g></g><g style="display: block;" transform="matrix(1,0,0,1,268.1419982910156,73.02300262451172)" opacity="1"><g opacity="1" transform="matrix(1,0,0,1,0,0)"><path stroke-linecap="butt" stroke-linejoin="miter" fill-opacity="0" stroke-miterlimit="10" stroke="rgb(1,136,255)" stroke-opacity="1" stroke-width="2" d=" M12.902999877929688,-30.968000411987305 C12.902999877929688,-30.968000411987305 -12.902999877929688,30.968000411987305 -12.902999877929688,30.968000411987305"></path></g></g><g transform="matrix(1,0,0,1,268.1419982910156,73.02300262451172)" opacity="1" style="display: none;"><g opacity="1" transform="matrix(1,0,0,1,0,0)"><path stroke-linecap="butt" stroke-linejoin="miter" fill-opacity="0" stroke-miterlimit="10" stroke="rgb(1,136,255)" stroke-opacity="1" stroke-width="2" d=" M12.902999877929688,-30.968000411987305 C12.902999877929688,-30.968000411987305 -12.645999908447266,30.351999282836914 -12.901000022888184,30.96299934387207"></path></g></g><g style="display: block;" transform="matrix(1,0,0,1,309.5610046386719,95.86100006103516)" opacity="1"><g opacity="1" transform="matrix(1,0,0,1,0,0)"><path stroke-linecap="butt" stroke-linejoin="miter" fill-opacity="0" stroke-miterlimit="10" stroke="rgb(1,136,255)" stroke-opacity="1" stroke-width="2" d=" M28.516000747680664,53.805999755859375 C28.516000747680664,53.805999755859375 -28.516000747680664,-53.805999755859375 -28.516000747680664,-53.805999755859375"></path></g></g><g transform="matrix(1,0,0,1,309.5610046386719,95.86100006103516)" opacity="1" style="display: none;"><g opacity="1" transform="matrix(1,0,0,1,0,0)"><path stroke-linecap="butt" stroke-linejoin="miter" fill-opacity="0" stroke-miterlimit="10" stroke="rgb(1,136,255)" stroke-opacity="1" stroke-width="2" d=" M28.516000747680664,53.805999755859375 C28.516000747680664,53.805999755859375 -27.947999954223633,-52.73500061035156 -28.511999130249023,-53.79800033569336"></path></g></g><g style="display: block;" transform="matrix(1,0,0,1,359.7539978027344,122.18399810791016)" opacity="1"><g opacity="1" transform="matrix(1,0,0,1,0,0)"><path stroke-linecap="butt" stroke-linejoin="miter" fill-opacity="0" stroke-miterlimit="10" stroke="rgb(1,136,255)" stroke-opacity="1" stroke-width="2" d=" M-21.677000045776367,27.483999252319336 C-21.677000045776367,27.483999252319336 21.677000045776367,-27.483999252319336 21.677000045776367,-27.483999252319336"></path></g></g><g transform="matrix(1,0,0,1,359.7539978027344,122.18399810791016)" opacity="1" style="display: none;"><g opacity="1" transform="matrix(1,0,0,1,0,0)"><path stroke-linecap="butt" stroke-linejoin="miter" fill-opacity="0" stroke-miterlimit="10" stroke="rgb(1,136,255)" stroke-opacity="1" stroke-width="2" d=" M-21.677000045776367,27.483999252319336 C-21.677000045776367,27.483999252319336 21.2450008392334,-26.937000274658203 21.673999786376953,-27.479999542236328"></path></g></g><g style="display: block;" transform="matrix(1,0,0,1,374.0769958496094,177.44900512695312)" opacity="1"><g opacity="1" transform="matrix(1,0,0,1,0,0)"><path stroke-linecap="butt" stroke-linejoin="miter" fill-opacity="0" stroke-miterlimit="10" stroke="rgb(1,136,255)" stroke-opacity="1" stroke-width="2" d=" M36,27.7810001373291 C36,27.7810001373291 -36,-27.7810001373291 -36,-27.7810001373291"></path></g></g><g transform="matrix(1,0,0,1,374.0769958496094,177.44900512695312)" opacity="1" style="display: none;"><g opacity="1" transform="matrix(1,0,0,1,0,0)"><path stroke-linecap="butt" stroke-linejoin="miter" fill-opacity="0" stroke-miterlimit="10" stroke="rgb(1,136,255)" stroke-opacity="1" stroke-width="2" d=" M36,27.7810001373291 C36,27.7810001373291 -36,-27.7810001373291 -36,-27.7810001373291"></path></g></g><g transform="matrix(1,0,0,1,410.0769958496094,205.22900390625)" opacity="1" style="display: none;"><g opacity="1" transform="matrix(1,0,0,1,0,0)"><path fill="rgb(255,255,255)" fill-opacity="1" d=" M21.857999801635742,0 C21.857999801635742,-12.071999549865723 12.071999549865723,-21.857999801635742 0,-21.857999801635742 C-12.071999549865723,-21.857999801635742 -21.857999801635742,-12.071999549865723 -21.857999801635742,0 C-21.857999801635742,12.071999549865723 -12.071999549865723,21.857999801635742 0,21.857999801635742 C12.071999549865723,21.857999801635742 21.857999801635742,12.071999549865723 21.857999801635742,0z"></path><path stroke-linecap="butt" stroke-linejoin="miter" fill-opacity="0" stroke-miterlimit="10" stroke="rgb(1,136,255)" stroke-opacity="1" stroke-width="2" d=" M21.857999801635742,0 C21.857999801635742,-12.071999549865723 12.071999549865723,-21.857999801635742 0,-21.857999801635742 C-12.071999549865723,-21.857999801635742 -21.857999801635742,-12.071999549865723 -21.857999801635742,0 C-21.857999801635742,12.071999549865723 -12.071999549865723,21.857999801635742 0,21.857999801635742 C12.071999549865723,21.857999801635742 21.857999801635742,12.071999549865723 21.857999801635742,0z"></path></g></g><g transform="matrix(1,0,0,1,325.69000244140625,303.73199462890625)" opacity="1" style="display: block;"><g opacity="1" transform="matrix(1,0,0,1,0,0)"><path fill="rgb(255,255,255)" fill-opacity="1" d=" M21.857999801635742,0 C21.857999801635742,-12.071999549865723 12.071999549865723,-21.857999801635742 0,-21.857999801635742 C-12.071999549865723,-21.857999801635742 -21.857999801635742,-12.071999549865723 -21.857999801635742,0 C-21.857999801635742,12.071999549865723 -12.071999549865723,21.857999801635742 0,21.857999801635742 C12.071999549865723,21.857999801635742 21.857999801635742,12.071999549865723 21.857999801635742,0z"></path><path stroke-linecap="butt" stroke-linejoin="miter" fill-opacity="0" stroke-miterlimit="10" stroke="rgb(1,136,255)" stroke-opacity="1" stroke-width="2" d=" M21.857999801635742,0 C21.857999801635742,-12.071999549865723 12.071999549865723,-21.857999801635742 0,-21.857999801635742 C-12.071999549865723,-21.857999801635742 -21.857999801635742,-12.071999549865723 -21.857999801635742,0 C-21.857999801635742,12.071999549865723 -12.071999549865723,21.857999801635742 0,21.857999801635742 C12.071999549865723,21.857999801635742 21.857999801635742,12.071999549865723 21.857999801635742,0z"></path></g></g><g transform="matrix(1,0,0,1,232.78700256347656,363.1650085449219)" opacity="1" style="display: block;"><g opacity="1" transform="matrix(1,0,0,1,0,0)"><path fill="rgb(255,255,255)" fill-opacity="1" d=" M21.857999801635742,0 C21.857999801635742,-12.071999549865723 12.071999549865723,-21.857999801635742 0,-21.857999801635742 C-12.071999549865723,-21.857999801635742 -21.857999801635742,-12.071999549865723 -21.857999801635742,0 C-21.857999801635742,12.071999549865723 -12.071999549865723,21.857999801635742 0,21.857999801635742 C12.071999549865723,21.857999801635742 21.857999801635742,12.071999549865723 21.857999801635742,0z"></path><path stroke-linecap="butt" stroke-linejoin="miter" fill-opacity="0" stroke-miterlimit="10" stroke="rgb(1,136,255)" stroke-opacity="1" stroke-width="2" d=" M21.857999801635742,0 C21.857999801635742,-12.071999549865723 12.071999549865723,-21.857999801635742 0,-21.857999801635742 C-12.071999549865723,-21.857999801635742 -21.857999801635742,-12.071999549865723 -21.857999801635742,0 C-21.857999801635742,12.071999549865723 -12.071999549865723,21.857999801635742 0,21.857999801635742 C12.071999549865723,21.857999801635742 21.857999801635742,12.071999549865723 21.857999801635742,0z"></path></g></g><g transform="matrix(1,0,0,1,207.23800659179688,262.5199890136719)" opacity="1" style="display: block;"><g opacity="1" transform="matrix(1,0,0,1,0,0)"><path fill="rgb(255,255,255)" fill-opacity="1" d=" M21.857999801635742,0 C21.857999801635742,-12.071999549865723 12.071999549865723,-21.857999801635742 0,-21.857999801635742 C-12.071999549865723,-21.857999801635742 -21.857999801635742,-12.071999549865723 -21.857999801635742,0 C-21.857999801635742,12.071999549865723 -12.071999549865723,21.857999801635742 0,21.857999801635742 C12.071999549865723,21.857999801635742 21.857999801635742,12.071999549865723 21.857999801635742,0z"></path><path stroke-linecap="butt" stroke-linejoin="miter" fill-opacity="0" stroke-miterlimit="10" stroke="rgb(1,136,255)" stroke-opacity="1" stroke-width="2" d=" M21.857999801635742,0 C21.857999801635742,-12.071999549865723 12.071999549865723,-21.857999801635742 0,-21.857999801635742 C-12.071999549865723,-21.857999801635742 -21.857999801635742,-12.071999549865723 -21.857999801635742,0 C-21.857999801635742,12.071999549865723 -12.071999549865723,21.857999801635742 0,21.857999801635742 C12.071999549865723,21.857999801635742 21.857999801635742,12.071999549865723 21.857999801635742,0z"></path></g></g><g transform="matrix(1,0,0,1,146.8509979248047,316.5060119628906)" opacity="1" style="display: block;"><g opacity="1" transform="matrix(1,0,0,1,0,0)"><path fill="rgb(255,255,255)" fill-opacity="1" d=" M21.857999801635742,0 C21.857999801635742,-12.071999549865723 12.071999549865723,-21.857999801635742 0,-21.857999801635742 C-12.071999549865723,-21.857999801635742 -21.857999801635742,-12.071999549865723 -21.857999801635742,0 C-21.857999801635742,12.071999549865723 -12.071999549865723,21.857999801635742 0,21.857999801635742 C12.071999549865723,21.857999801635742 21.857999801635742,12.071999549865723 21.857999801635742,0z"></path><path stroke-linecap="butt" stroke-linejoin="miter" fill-opacity="0" stroke-miterlimit="10" stroke="rgb(1,136,255)" stroke-opacity="1" stroke-width="2" d=" M21.857999801635742,0 C21.857999801635742,-12.071999549865723 12.071999549865723,-21.857999801635742 0,-21.857999801635742 C-12.071999549865723,-21.857999801635742 -21.857999801635742,-12.071999549865723 -21.857999801635742,0 C-21.857999801635742,12.071999549865723 -12.071999549865723,21.857999801635742 0,21.857999801635742 C12.071999549865723,21.857999801635742 21.857999801635742,12.071999549865723 21.857999801635742,0z"></path></g></g><g transform="matrix(1,0,0,1,131.62600708007812,216.2480010986328)" opacity="1" style="display: block;"><g opacity="1" transform="matrix(1,0,0,1,0,0)"><path fill="rgb(255,255,255)" fill-opacity="1" d=" M21.857999801635742,0 C21.857999801635742,-12.071999549865723 12.071999549865723,-21.857999801635742 0,-21.857999801635742 C-12.071999549865723,-21.857999801635742 -21.857999801635742,-12.071999549865723 -21.857999801635742,0 C-21.857999801635742,12.071999549865723 -12.071999549865723,21.857999801635742 0,21.857999801635742 C12.071999549865723,21.857999801635742 21.857999801635742,12.071999549865723 21.857999801635742,0z"></path><path stroke-linecap="butt" stroke-linejoin="miter" fill-opacity="0" stroke-miterlimit="10" stroke="rgb(1,136,255)" stroke-opacity="1" stroke-width="2" d=" M21.857999801635742,0 C21.857999801635742,-12.071999549865723 12.071999549865723,-21.857999801635742 0,-21.857999801635742 C-12.071999549865723,-21.857999801635742 -21.857999801635742,-12.071999549865723 -21.857999801635742,0 C-21.857999801635742,12.071999549865723 -12.071999549865723,21.857999801635742 0,21.857999801635742 C12.071999549865723,21.857999801635742 21.857999801635742,12.071999549865723 21.857999801635742,0z"></path></g></g><g transform="matrix(1,0,0,1,151.19500732421875,124.37300109863281)" opacity="1" style="display: block;"><g opacity="1" transform="matrix(1,0,0,1,0,0)"><path fill="rgb(255,255,255)" fill-opacity="1" d=" M21.857999801635742,0 C21.857999801635742,-12.071999549865723 12.071999549865723,-21.857999801635742 0,-21.857999801635742 C-12.071999549865723,-21.857999801635742 -21.857999801635742,-12.071999549865723 -21.857999801635742,0 C-21.857999801635742,12.071999549865723 -12.071999549865723,21.857999801635742 0,21.857999801635742 C12.071999549865723,21.857999801635742 21.857999801635742,12.071999549865723 21.857999801635742,0z"></path><path stroke-linecap="butt" stroke-linejoin="miter" fill-opacity="0" stroke-miterlimit="10" stroke="rgb(1,136,255)" stroke-opacity="1" stroke-width="2" d=" M21.857999801635742,0 C21.857999801635742,-12.071999549865723 12.071999549865723,-21.857999801635742 0,-21.857999801635742 C-12.071999549865723,-21.857999801635742 -21.857999801635742,-12.071999549865723 -21.857999801635742,0 C-21.857999801635742,12.071999549865723 -12.071999549865723,21.857999801635742 0,21.857999801635742 C12.071999549865723,21.857999801635742 21.857999801635742,12.071999549865723 21.857999801635742,0z"></path></g></g><g transform="matrix(1,0,0,1,255.23800659179688,103.98999786376953)" opacity="1" style="display: block;"><g opacity="1" transform="matrix(1,0,0,1,0,0)"><path fill="rgb(255,255,255)" fill-opacity="1" d=" M21.857999801635742,0 C21.857999801635742,-12.071999549865723 12.071999549865723,-21.857999801635742 0,-21.857999801635742 C-12.071999549865723,-21.857999801635742 -21.857999801635742,-12.071999549865723 -21.857999801635742,0 C-21.857999801635742,12.071999549865723 -12.071999549865723,21.857999801635742 0,21.857999801635742 C12.071999549865723,21.857999801635742 21.857999801635742,12.071999549865723 21.857999801635742,0z"></path><path stroke-linecap="butt" stroke-linejoin="miter" fill-opacity="0" stroke-miterlimit="10" stroke="rgb(1,136,255)" stroke-opacity="1" stroke-width="2" d=" M21.857999801635742,0 C21.857999801635742,-12.071999549865723 12.071999549865723,-21.857999801635742 0,-21.857999801635742 C-12.071999549865723,-21.857999801635742 -21.857999801635742,-12.071999549865723 -21.857999801635742,0 C-21.857999801635742,12.071999549865723 -12.071999549865723,21.857999801635742 0,21.857999801635742 C12.071999549865723,21.857999801635742 21.857999801635742,12.071999549865723 21.857999801635742,0z"></path></g></g><g transform="matrix(1,0,0,1,281.0450134277344,42.05500030517578)" opacity="1" style="display: block;"><g opacity="1" transform="matrix(1,0,0,1,0,0)"><path fill="rgb(255,255,255)" fill-opacity="1" d=" M21.857999801635742,0 C21.857999801635742,-12.071999549865723 12.071999549865723,-21.857999801635742 0,-21.857999801635742 C-12.071999549865723,-21.857999801635742 -21.857999801635742,-12.071999549865723 -21.857999801635742,0 C-21.857999801635742,12.071999549865723 -12.071999549865723,21.857999801635742 0,21.857999801635742 C12.071999549865723,21.857999801635742 21.857999801635742,12.071999549865723 21.857999801635742,0z"></path><path stroke-linecap="butt" stroke-linejoin="miter" fill-opacity="0" stroke-miterlimit="10" stroke="rgb(1,136,255)" stroke-opacity="1" stroke-width="2" d=" M21.857999801635742,0 C21.857999801635742,-12.071999549865723 12.071999549865723,-21.857999801635742 0,-21.857999801635742 C-12.071999549865723,-21.857999801635742 -21.857999801635742,-12.071999549865723 -21.857999801635742,0 C-21.857999801635742,12.071999549865723 -12.071999549865723,21.857999801635742 0,21.857999801635742 C12.071999549865723,21.857999801635742 21.857999801635742,12.071999549865723 21.857999801635742,0z"></path></g></g><g transform="matrix(1,0,0,1,381.4320068359375,94.69999694824219)" opacity="1" style="display: block;"><g opacity="1" transform="matrix(1,0,0,1,0,0)"><path fill="rgb(255,255,255)" fill-opacity="1" d=" M21.857999801635742,0 C21.857999801635742,-12.071999549865723 12.071999549865723,-21.857999801635742 0,-21.857999801635742 C-12.071999549865723,-21.857999801635742 -21.857999801635742,-12.071999549865723 -21.857999801635742,0 C-21.857999801635742,12.071999549865723 -12.071999549865723,21.857999801635742 0,21.857999801635742 C12.071999549865723,21.857999801635742 21.857999801635742,12.071999549865723 21.857999801635742,0z"></path><path stroke-linecap="butt" stroke-linejoin="miter" fill-opacity="0" stroke-miterlimit="10" stroke="rgb(1,136,255)" stroke-opacity="1" stroke-width="2" d=" M21.857999801635742,0 C21.857999801635742,-12.071999549865723 12.071999549865723,-21.857999801635742 0,-21.857999801635742 C-12.071999549865723,-21.857999801635742 -21.857999801635742,-12.071999549865723 -21.857999801635742,0 C-21.857999801635742,12.071999549865723 -12.071999549865723,21.857999801635742 0,21.857999801635742 C12.071999549865723,21.857999801635742 21.857999801635742,12.071999549865723 21.857999801635742,0z"></path></g></g><g style="display: none;" transform="matrix(1,0,0,1,381.4320068359375,94.69999694824219)" opacity="1"><g opacity="1" transform="matrix(1,0,0,1,0,0)"><path fill="rgb(255,255,255)" fill-opacity="1" d=" M21.857999801635742,0 C21.857999801635742,-12.071999549865723 12.071999549865723,-21.857999801635742 0,-21.857999801635742 C-12.071999549865723,-21.857999801635742 -21.857999801635742,-12.071999549865723 -21.857999801635742,0 C-21.857999801635742,12.071999549865723 -12.071999549865723,21.857999801635742 0,21.857999801635742 C12.071999549865723,21.857999801635742 21.857999801635742,12.071999549865723 21.857999801635742,0z"></path><path stroke-linecap="butt" stroke-linejoin="miter" fill-opacity="0" stroke-miterlimit="10" stroke="rgb(1,136,255)" stroke-opacity="1" stroke-width="2" d=" M21.857999801635742,0 C21.857999801635742,-12.071999549865723 12.071999549865723,-21.857999801635742 0,-21.857999801635742 C-12.071999549865723,-21.857999801635742 -21.857999801635742,-12.071999549865723 -21.857999801635742,0 C-21.857999801635742,12.071999549865723 -12.071999549865723,21.857999801635742 0,21.857999801635742 C12.071999549865723,21.857999801635742 21.857999801635742,12.071999549865723 21.857999801635742,0z"></path></g></g><g transform="matrix(1,0,0,1,338.0769958496094,149.66799926757812)" opacity="1" style="display: block;"><g opacity="1" transform="matrix(1,0,0,1,0,0)"><path fill="rgb(255,255,255)" fill-opacity="1" d=" M21.857999801635742,0 C21.857999801635742,-12.071999549865723 12.071999549865723,-21.857999801635742 0,-21.857999801635742 C-12.071999549865723,-21.857999801635742 -21.857999801635742,-12.071999549865723 -21.857999801635742,0 C-21.857999801635742,12.071999549865723 -12.071999549865723,21.857999801635742 0,21.857999801635742 C12.071999549865723,21.857999801635742 21.857999801635742,12.071999549865723 21.857999801635742,0z"></path><path stroke-linecap="butt" stroke-linejoin="miter" fill-opacity="0" stroke-miterlimit="10" stroke="rgb(1,136,255)" stroke-opacity="1" stroke-width="2" d=" M21.857999801635742,0 C21.857999801635742,-12.071999549865723 12.071999549865723,-21.857999801635742 0,-21.857999801635742 C-12.071999549865723,-21.857999801635742 -21.857999801635742,-12.071999549865723 -21.857999801635742,0 C-21.857999801635742,12.071999549865723 -12.071999549865723,21.857999801635742 0,21.857999801635742 C12.071999549865723,21.857999801635742 21.857999801635742,12.071999549865723 21.857999801635742,0z"></path></g></g><g style="display: none;" transform="matrix(1,0,0,1,338.0769958496094,149.66799926757812)" opacity="1"><g opacity="1" transform="matrix(1,0,0,1,0,0)"><path fill="rgb(255,255,255)" fill-opacity="1" d=" M21.857999801635742,0 C21.857999801635742,-12.071999549865723 12.071999549865723,-21.857999801635742 0,-21.857999801635742 C-12.071999549865723,-21.857999801635742 -21.857999801635742,-12.071999549865723 -21.857999801635742,0 C-21.857999801635742,12.071999549865723 -12.071999549865723,21.857999801635742 0,21.857999801635742 C12.071999549865723,21.857999801635742 21.857999801635742,12.071999549865723 21.857999801635742,0z"></path><path stroke-linecap="butt" stroke-linejoin="miter" fill-opacity="0" stroke-miterlimit="10" stroke="rgb(1,136,255)" stroke-opacity="1" stroke-width="2" d=" M21.857999801635742,0 C21.857999801635742,-12.071999549865723 12.071999549865723,-21.857999801635742 0,-21.857999801635742 C-12.071999549865723,-21.857999801635742 -21.857999801635742,-12.071999549865723 -21.857999801635742,0 C-21.857999801635742,12.071999549865723 -12.071999549865723,21.857999801635742 0,21.857999801635742 C12.071999549865723,21.857999801635742 21.857999801635742,12.071999549865723 21.857999801635742,0z"></path></g></g><g transform="matrix(-0.19675037264823914,1.031401515007019,-1.031401515007019,-0.19675037264823914,257.9956970214844,201.65809631347656)" opacity="1" style="display: block;"><g opacity="1" transform="matrix(1,0,0,1,0,0)"><path fill="rgb(255,255,255)" fill-opacity="1" d=" M135.31300354003906,-136.2779998779297 C122.69599914550781,-148.79100036621094 110.46900177001953,-158.0919952392578 95.04399871826172,-166.91299438476562 C79.61900329589844,-175.73399353027344 65.4020004272461,-181.5540008544922 48.21900177001953,-186.08200073242188 C31.035999298095703,-190.61000061035156 15.795999526977539,-192.552001953125 -1.9730000495910645,-192.47799682617188 C-19.742000579833984,-192.4040069580078 -34.9640007019043,-190.33599853515625 -52.10900115966797,-185.66600036621094 C-69.25399780273438,-180.99600219726562 -83.4219970703125,-175.05799865722656 -98.77400207519531,-166.11000061035156 C-98.77400207519531,-166.11000061035156 -1.1699999570846558,1.340000033378601 -1.1699999570846558,1.340000033378601 C-1.1699999570846558,1.340000033378601 166.27999877929688,-96.26399993896484 166.27999877929688,-96.26399993896484 C157.33200073242188,-111.61599731445312 147.92999267578125,-123.76499938964844 135.31300354003906,-136.2779998779297z"></path></g></g><g transform="matrix(1,0,0,1,151.19500732421875,124.37300109863281)" opacity="1" style="display: none;"><g opacity="1" transform="matrix(1,0,0,1,0,0)"><path fill="rgb(1,136,255)" fill-opacity="1" d=" M14.571999549865723,0 C14.571999549865723,-8.04800033569336 8.04800033569336,-14.571999549865723 0,-14.571999549865723 C-8.04800033569336,-14.571999549865723 -14.571999549865723,-8.04800033569336 -14.571999549865723,0 C-14.571999549865723,8.04800033569336 -8.04800033569336,14.571999549865723 0,14.571999549865723 C8.04800033569336,14.571999549865723 14.571999549865723,8.04800033569336 14.571999549865723,0z"></path></g></g><g style="display: block;" transform="matrix(1,0,0,1,151.19500732421875,124.37300109863281)" opacity="1"><g opacity="1" transform="matrix(1,0,0,1,0,0)"><path fill="rgb(1,136,255)" fill-opacity="1" d=" M14.571999549865723,0 C14.571999549865723,-8.04800033569336 8.04800033569336,-14.571999549865723 0,-14.571999549865723 C-8.04800033569336,-14.571999549865723 -14.571999549865723,-8.04800033569336 -14.571999549865723,0 C-14.571999549865723,8.04800033569336 -8.04800033569336,14.571999549865723 0,14.571999549865723 C8.04800033569336,14.571999549865723 14.571999549865723,8.04800033569336 14.571999549865723,0z"></path></g></g><g transform="matrix(1,0,0,1,255.23800659179688,103.98999786376953)" opacity="1" style="display: block;"><g opacity="1" transform="matrix(1,0,0,1,0,0)"><path fill="rgb(1,136,255)" fill-opacity="1" d=" M14.571999549865723,0 C14.571999549865723,-8.04800033569336 8.04800033569336,-14.571999549865723 0,-14.571999549865723 C-8.04800033569336,-14.571999549865723 -14.571999549865723,-8.04800033569336 -14.571999549865723,0 C-14.571999549865723,8.04800033569336 -8.04800033569336,14.571999549865723 0,14.571999549865723 C8.04800033569336,14.571999549865723 14.571999549865723,8.04800033569336 14.571999549865723,0z"></path></g></g><g style="display: block;" transform="matrix(1,0,0,1,255.23800659179688,103.98999786376953)" opacity="1"><g opacity="1" transform="matrix(1,0,0,1,0,0)"><path fill="rgb(1,136,255)" fill-opacity="1" d=" M14.571999549865723,0 C14.571999549865723,-8.04800033569336 8.04800033569336,-14.571999549865723 0,-14.571999549865723 C-8.04800033569336,-14.571999549865723 -14.571999549865723,-8.04800033569336 -14.571999549865723,0 C-14.571999549865723,8.04800033569336 -8.04800033569336,14.571999549865723 0,14.571999549865723 C8.04800033569336,14.571999549865723 14.571999549865723,8.04800033569336 14.571999549865723,0z"></path></g></g><g transform="matrix(1,0,0,1,255.23800659179688,103.98999786376953)" opacity="1" style="display: none;"><g opacity="1" transform="matrix(1,0,0,1,0,0)"><path fill="rgb(1,136,255)" fill-opacity="1" d=" M14.571999549865723,0 C14.571999549865723,-8.04800033569336 8.04800033569336,-14.571999549865723 0,-14.571999549865723 C-8.04800033569336,-14.571999549865723 -14.571999549865723,-8.04800033569336 -14.571999549865723,0 C-14.571999549865723,8.04800033569336 -8.04800033569336,14.571999549865723 0,14.571999549865723 C8.04800033569336,14.571999549865723 14.571999549865723,8.04800033569336 14.571999549865723,0z"></path></g></g><g style="display: block;" transform="matrix(1,0,0,1,281.0450134277344,42.05500030517578)" opacity="1"><g opacity="1" transform="matrix(1,0,0,1,0,0)"><path fill="rgb(1,136,255)" fill-opacity="1" d=" M14.571999549865723,0 C14.571999549865723,-8.04800033569336 8.04800033569336,-14.571999549865723 0,-14.571999549865723 C-8.04800033569336,-14.571999549865723 -14.571999549865723,-8.04800033569336 -14.571999549865723,0 C-14.571999549865723,8.04800033569336 -8.04800033569336,14.571999549865723 0,14.571999549865723 C8.04800033569336,14.571999549865723 14.571999549865723,8.04800033569336 14.571999549865723,0z"></path></g></g><g style="display: block;" transform="matrix(1,0,0,1,281.0450134277344,42.05500030517578)" opacity="1"><g opacity="1" transform="matrix(1,0,0,1,0,0)"><path fill="rgb(1,136,255)" fill-opacity="1" d=" M14.571999549865723,0 C14.571999549865723,-8.04800033569336 8.04800033569336,-14.571999549865723 0,-14.571999549865723 C-8.04800033569336,-14.571999549865723 -14.571999549865723,-8.04800033569336 -14.571999549865723,0 C-14.571999549865723,8.04800033569336 -8.04800033569336,14.571999549865723 0,14.571999549865723 C8.04800033569336,14.571999549865723 14.571999549865723,8.04800033569336 14.571999549865723,0z"></path></g></g><g transform="matrix(1,0,0,1,381.4320068359375,94.69999694824219)" opacity="1" style="display: block;"><g opacity="1" transform="matrix(1,0,0,1,0,0)"><path fill="rgb(1,136,255)" fill-opacity="1" d=" M14.571999549865723,0 C14.571999549865723,-8.04800033569336 8.04800033569336,-14.571999549865723 0,-14.571999549865723 C-8.04800033569336,-14.571999549865723 -14.571999549865723,-8.04800033569336 -14.571999549865723,0 C-14.571999549865723,8.04800033569336 -8.04800033569336,14.571999549865723 0,14.571999549865723 C8.04800033569336,14.571999549865723 14.571999549865723,8.04800033569336 14.571999549865723,0z"></path></g></g><g transform="matrix(1,0,0,1,381.4320068359375,94.69999694824219)" opacity="1" style="display: block;"><g opacity="1" transform="matrix(1,0,0,1,0,0)"><path fill="rgb(1,136,255)" fill-opacity="1" d=" M14.571999549865723,0 C14.571999549865723,-8.04800033569336 8.04800033569336,-14.571999549865723 0,-14.571999549865723 C-8.04800033569336,-14.571999549865723 -14.571999549865723,-8.04800033569336 -14.571999549865723,0 C-14.571999549865723,8.04800033569336 -8.04800033569336,14.571999549865723 0,14.571999549865723 C8.04800033569336,14.571999549865723 14.571999549865723,8.04800033569336 14.571999549865723,0z"></path></g></g><g transform="matrix(1,0,0,1,338.0769958496094,149.66799926757812)" opacity="1" style="display: block;"><g opacity="1" transform="matrix(1,0,0,1,0,0)"><path fill="rgb(1,136,255)" fill-opacity="1" d=" M14.571999549865723,0 C14.571999549865723,-8.04800033569336 8.04800033569336,-14.571999549865723 0,-14.571999549865723 C-8.04800033569336,-14.571999549865723 -14.571999549865723,-8.04800033569336 -14.571999549865723,0 C-14.571999549865723,8.04800033569336 -8.04800033569336,14.571999549865723 0,14.571999549865723 C8.04800033569336,14.571999549865723 14.571999549865723,8.04800033569336 14.571999549865723,0z"></path></g></g><g transform="matrix(1,0,0,1,338.0769958496094,149.66799926757812)" opacity="1" style="display: block;"><g opacity="1" transform="matrix(1,0,0,1,0,0)"><path fill="rgb(1,136,255)" fill-opacity="1" d=" M14.571999549865723,0 C14.571999549865723,-8.04800033569336 8.04800033569336,-14.571999549865723 0,-14.571999549865723 C-8.04800033569336,-14.571999549865723 -14.571999549865723,-8.04800033569336 -14.571999549865723,0 C-14.571999549865723,8.04800033569336 -8.04800033569336,14.571999549865723 0,14.571999549865723 C8.04800033569336,14.571999549865723 14.571999549865723,8.04800033569336 14.571999549865723,0z"></path></g></g><g transform="matrix(1,0,0,1,410.0769958496094,205.22900390625)" opacity="1" style="display: block;"><g opacity="1" transform="matrix(1,0,0,1,0,0)"><path fill="rgb(1,136,255)" fill-opacity="1" d=" M14.571999549865723,0 C14.571999549865723,-8.04800033569336 8.04800033569336,-14.571999549865723 0,-14.571999549865723 C-8.04800033569336,-14.571999549865723 -14.571999549865723,-8.04800033569336 -14.571999549865723,0 C-14.571999549865723,8.04800033569336 -8.04800033569336,14.571999549865723 0,14.571999549865723 C8.04800033569336,14.571999549865723 14.571999549865723,8.04800033569336 14.571999549865723,0z"></path></g></g><g transform="matrix(1,0,0,1,410.0769958496094,205.22900390625)" opacity="1" style="display: block;"><g opacity="1" transform="matrix(1,0,0,1,0,0)"><path fill="rgb(1,136,255)" fill-opacity="1" d=" M14.571999549865723,0 C14.571999549865723,-8.04800033569336 8.04800033569336,-14.571999549865723 0,-14.571999549865723 C-8.04800033569336,-14.571999549865723 -14.571999549865723,-8.04800033569336 -14.571999549865723,0 C-14.571999549865723,8.04800033569336 -8.04800033569336,14.571999549865723 0,14.571999549865723 C8.04800033569336,14.571999549865723 14.571999549865723,8.04800033569336 14.571999549865723,0z"></path></g></g><g transform="matrix(1,0,0,1,281.0450134277344,42.05500030517578)" opacity="1" style="display: none;"><g opacity="1" transform="matrix(1,0,0,1,0,0)"><path fill="rgb(1,136,255)" fill-opacity="1" d=" M14.571999549865723,0 C14.571999549865723,-8.04800033569336 8.04800033569336,-14.571999549865723 0,-14.571999549865723 C-8.04800033569336,-14.571999549865723 -14.571999549865723,-8.04800033569336 -14.571999549865723,0 C-14.571999549865723,8.04800033569336 -8.04800033569336,14.571999549865723 0,14.571999549865723 C8.04800033569336,14.571999549865723 14.571999549865723,8.04800033569336 14.571999549865723,0z"></path></g></g><g style="display: none;" transform="matrix(1,0,0,1,281.0450134277344,42.05500030517578)" opacity="1"><g opacity="1" transform="matrix(1,0,0,1,0,0)"><path fill="rgb(1,136,255)" fill-opacity="1" d=" M14.571999549865723,0 C14.571999549865723,-8.04800033569336 8.04800033569336,-14.571999549865723 0,-14.571999549865723 C-8.04800033569336,-14.571999549865723 -14.571999549865723,-8.04800033569336 -14.571999549865723,0 C-14.571999549865723,8.04800033569336 -8.04800033569336,14.571999549865723 0,14.571999549865723 C8.04800033569336,14.571999549865723 14.571999549865723,8.04800033569336 14.571999549865723,0z"></path></g></g><g transform="matrix(1,0,0,1,381.4320068359375,94.69999694824219)" opacity="1" style="display: none;"><g opacity="1" transform="matrix(1,0,0,1,0,0)"><path fill="rgb(1,136,255)" fill-opacity="1" d=" M14.571999549865723,0 C14.571999549865723,-8.04800033569336 8.04800033569336,-14.571999549865723 0,-14.571999549865723 C-8.04800033569336,-14.571999549865723 -14.571999549865723,-8.04800033569336 -14.571999549865723,0 C-14.571999549865723,8.04800033569336 -8.04800033569336,14.571999549865723 0,14.571999549865723 C8.04800033569336,14.571999549865723 14.571999549865723,8.04800033569336 14.571999549865723,0z"></path></g></g><g style="display: none;" transform="matrix(1,0,0,1,381.4320068359375,94.69999694824219)" opacity="1"><g opacity="1" transform="matrix(1,0,0,1,0,0)"><path fill="rgb(1,136,255)" fill-opacity="1" d=" M14.571999549865723,0 C14.571999549865723,-8.04800033569336 8.04800033569336,-14.571999549865723 0,-14.571999549865723 C-8.04800033569336,-14.571999549865723 -14.571999549865723,-8.04800033569336 -14.571999549865723,0 C-14.571999549865723,8.04800033569336 -8.04800033569336,14.571999549865723 0,14.571999549865723 C8.04800033569336,14.571999549865723 14.571999549865723,8.04800033569336 14.571999549865723,0z"></path></g></g><g transform="matrix(1,0,0,1,338.0769958496094,149.66799926757812)" opacity="1" style="display: none;"><g opacity="1" transform="matrix(1,0,0,1,0,0)"><path fill="rgb(1,136,255)" fill-opacity="1" d=" M14.571999549865723,0 C14.571999549865723,-8.04800033569336 8.04800033569336,-14.571999549865723 0,-14.571999549865723 C-8.04800033569336,-14.571999549865723 -14.571999549865723,-8.04800033569336 -14.571999549865723,0 C-14.571999549865723,8.04800033569336 -8.04800033569336,14.571999549865723 0,14.571999549865723 C8.04800033569336,14.571999549865723 14.571999549865723,8.04800033569336 14.571999549865723,0z"></path></g></g><g style="display: none;" transform="matrix(1,0,0,1,338.0769958496094,149.66799926757812)" opacity="1"><g opacity="1" transform="matrix(1,0,0,1,0,0)"><path fill="rgb(1,136,255)" fill-opacity="1" d=" M14.571999549865723,0 C14.571999549865723,-8.04800033569336 8.04800033569336,-14.571999549865723 0,-14.571999549865723 C-8.04800033569336,-14.571999549865723 -14.571999549865723,-8.04800033569336 -14.571999549865723,0 C-14.571999549865723,8.04800033569336 -8.04800033569336,14.571999549865723 0,14.571999549865723 C8.04800033569336,14.571999549865723 14.571999549865723,8.04800033569336 14.571999549865723,0z"></path></g></g><g transform="matrix(1,0,0,1,410.0769958496094,205.22900390625)" opacity="1" style="display: none;"><g opacity="1" transform="matrix(1,0,0,1,0,0)"><path fill="rgb(1,136,255)" fill-opacity="1" d=" M14.571999549865723,0 C14.571999549865723,-8.04800033569336 8.04800033569336,-14.571999549865723 0,-14.571999549865723 C-8.04800033569336,-14.571999549865723 -14.571999549865723,-8.04800033569336 -14.571999549865723,0 C-14.571999549865723,8.04800033569336 -8.04800033569336,14.571999549865723 0,14.571999549865723 C8.04800033569336,14.571999549865723 14.571999549865723,8.04800033569336 14.571999549865723,0z"></path></g></g><g transform="matrix(1,0,0,1,410.0769958496094,205.22900390625)" opacity="1" style="display: none;"><g opacity="1" transform="matrix(1,0,0,1,0,0)"><path fill="rgb(1,136,255)" fill-opacity="1" d=" M14.571999549865723,0 C14.571999549865723,-8.04800033569336 8.04800033569336,-14.571999549865723 0,-14.571999549865723 C-8.04800033569336,-14.571999549865723 -14.571999549865723,-8.04800033569336 -14.571999549865723,0 C-14.571999549865723,8.04800033569336 -8.04800033569336,14.571999549865723 0,14.571999549865723 C8.04800033569336,14.571999549865723 14.571999549865723,8.04800033569336 14.571999549865723,0z"></path></g></g><g transform="matrix(1,0,0,1,325.69000244140625,303.73199462890625)" opacity="1" style="display: block;"><g opacity="1" transform="matrix(1,0,0,1,0,0)"><path fill="rgb(1,136,255)" fill-opacity="1" d=" M14.571999549865723,0 C14.571999549865723,-8.04800033569336 8.04800033569336,-14.571999549865723 0,-14.571999549865723 C-8.04800033569336,-14.571999549865723 -14.571999549865723,-8.04800033569336 -14.571999549865723,0 C-14.571999549865723,8.04800033569336 -8.04800033569336,14.571999549865723 0,14.571999549865723 C8.04800033569336,14.571999549865723 14.571999549865723,8.04800033569336 14.571999549865723,0z"></path></g></g><g style="display: block;" transform="matrix(1,0,0,1,325.69000244140625,303.73199462890625)" opacity="1"><g opacity="1" transform="matrix(1,0,0,1,0,0)"><path fill="rgb(1,136,255)" fill-opacity="1" d=" M14.571999549865723,0 C14.571999549865723,-8.04800033569336 8.04800033569336,-14.571999549865723 0,-14.571999549865723 C-8.04800033569336,-14.571999549865723 -14.571999549865723,-8.04800033569336 -14.571999549865723,0 C-14.571999549865723,8.04800033569336 -8.04800033569336,14.571999549865723 0,14.571999549865723 C8.04800033569336,14.571999549865723 14.571999549865723,8.04800033569336 14.571999549865723,0z"></path></g></g><g transform="matrix(1,0,0,1,232.78700256347656,363.1650085449219)" opacity="1" style="display: block;"><g opacity="1" transform="matrix(1,0,0,1,0,0)"><path fill="rgb(1,136,255)" fill-opacity="1" d=" M14.571999549865723,0 C14.571999549865723,-8.04800033569336 8.04800033569336,-14.571999549865723 0,-14.571999549865723 C-8.04800033569336,-14.571999549865723 -14.571999549865723,-8.04800033569336 -14.571999549865723,0 C-14.571999549865723,8.04800033569336 -8.04800033569336,14.571999549865723 0,14.571999549865723 C8.04800033569336,14.571999549865723 14.571999549865723,8.04800033569336 14.571999549865723,0z"></path></g></g><g style="display: block;" transform="matrix(1,0,0,1,232.78700256347656,363.1650085449219)" opacity="1"><g opacity="1" transform="matrix(1,0,0,1,0,0)"><path fill="rgb(1,136,255)" fill-opacity="1" d=" M14.571999549865723,0 C14.571999549865723,-8.04800033569336 8.04800033569336,-14.571999549865723 0,-14.571999549865723 C-8.04800033569336,-14.571999549865723 -14.571999549865723,-8.04800033569336 -14.571999549865723,0 C-14.571999549865723,8.04800033569336 -8.04800033569336,14.571999549865723 0,14.571999549865723 C8.04800033569336,14.571999549865723 14.571999549865723,8.04800033569336 14.571999549865723,0z"></path></g></g><g transform="matrix(1,0,0,1,207.23800659179688,262.5199890136719)" opacity="1" style="display: block;"><g opacity="1" transform="matrix(1,0,0,1,0,0)"><path fill="rgb(1,136,255)" fill-opacity="1" d=" M14.571999549865723,0 C14.571999549865723,-8.04800033569336 8.04800033569336,-14.571999549865723 0,-14.571999549865723 C-8.04800033569336,-14.571999549865723 -14.571999549865723,-8.04800033569336 -14.571999549865723,0 C-14.571999549865723,8.04800033569336 -8.04800033569336,14.571999549865723 0,14.571999549865723 C8.04800033569336,14.571999549865723 14.571999549865723,8.04800033569336 14.571999549865723,0z"></path></g></g><g style="display: block;" transform="matrix(1,0,0,1,207.23800659179688,262.5199890136719)" opacity="1"><g opacity="1" transform="matrix(1,0,0,1,0,0)"><path fill="rgb(1,136,255)" fill-opacity="1" d=" M14.571999549865723,0 C14.571999549865723,-8.04800033569336 8.04800033569336,-14.571999549865723 0,-14.571999549865723 C-8.04800033569336,-14.571999549865723 -14.571999549865723,-8.04800033569336 -14.571999549865723,0 C-14.571999549865723,8.04800033569336 -8.04800033569336,14.571999549865723 0,14.571999549865723 C8.04800033569336,14.571999549865723 14.571999549865723,8.04800033569336 14.571999549865723,0z"></path></g></g><g transform="matrix(1,0,0,1,146.8509979248047,316.5060119628906)" opacity="1" style="display: block;"><g opacity="1" transform="matrix(1,0,0,1,0,0)"><path fill="rgb(1,136,255)" fill-opacity="1" d=" M14.571999549865723,0 C14.571999549865723,-8.04800033569336 8.04800033569336,-14.571999549865723 0,-14.571999549865723 C-8.04800033569336,-14.571999549865723 -14.571999549865723,-8.04800033569336 -14.571999549865723,0 C-14.571999549865723,8.04800033569336 -8.04800033569336,14.571999549865723 0,14.571999549865723 C8.04800033569336,14.571999549865723 14.571999549865723,8.04800033569336 14.571999549865723,0z"></path></g></g><g style="display: block;" transform="matrix(1,0,0,1,146.8509979248047,316.5060119628906)" opacity="1"><g opacity="1" transform="matrix(1,0,0,1,0,0)"><path fill="rgb(1,136,255)" fill-opacity="1" d=" M14.571999549865723,0 C14.571999549865723,-8.04800033569336 8.04800033569336,-14.571999549865723 0,-14.571999549865723 C-8.04800033569336,-14.571999549865723 -14.571999549865723,-8.04800033569336 -14.571999549865723,0 C-14.571999549865723,8.04800033569336 -8.04800033569336,14.571999549865723 0,14.571999549865723 C8.04800033569336,14.571999549865723 14.571999549865723,8.04800033569336 14.571999549865723,0z"></path></g></g><g transform="matrix(1,0,0,1,131.62600708007812,216.2480010986328)" opacity="1" style="display: block;"><g opacity="1" transform="matrix(1,0,0,1,0,0)"><path fill="rgb(1,136,255)" fill-opacity="1" d=" M14.571999549865723,0 C14.571999549865723,-8.04800033569336 8.04800033569336,-14.571999549865723 0,-14.571999549865723 C-8.04800033569336,-14.571999549865723 -14.571999549865723,-8.04800033569336 -14.571999549865723,0 C-14.571999549865723,8.04800033569336 -8.04800033569336,14.571999549865723 0,14.571999549865723 C8.04800033569336,14.571999549865723 14.571999549865723,8.04800033569336 14.571999549865723,0z"></path></g></g><g style="display: block;" transform="matrix(1,0,0,1,131.62600708007812,216.2480010986328)" opacity="1"><g opacity="1" transform="matrix(1,0,0,1,0,0)"><path fill="rgb(1,136,255)" fill-opacity="1" d=" M14.571999549865723,0 C14.571999549865723,-8.04800033569336 8.04800033569336,-14.571999549865723 0,-14.571999549865723 C-8.04800033569336,-14.571999549865723 -14.571999549865723,-8.04800033569336 -14.571999549865723,0 C-14.571999549865723,8.04800033569336 -8.04800033569336,14.571999549865723 0,14.571999549865723 C8.04800033569336,14.571999549865723 14.571999549865723,8.04800033569336 14.571999549865723,0z"></path></g></g><g transform="matrix(-0.187381312251091,0.9822872281074524,-0.9822872281074524,-0.187381312251091,349.4949951171875,168.51937866210938)" opacity="1" style="display: block;"><g opacity="1" transform="matrix(1,0,0,1,0,0)"><path stroke-linecap="round" stroke-linejoin="miter" fill-opacity="0" stroke-miterlimit="10" stroke="rgb(1,136,255)" stroke-opacity="1" stroke-width="2" d=" M48.85499954223633,83.70800018310547 C48.85499954223633,83.70800018310547 -48.85499954223633,-83.70800018310547 -48.85499954223633,-83.70800018310547"></path></g></g><g transform="matrix(-0.187381312251091,0.9822872281074524,-0.9822872281074524,-0.187381312251091,306.3943176269531,180.8057403564453)" opacity="1" style="display: block;"><g opacity="1" transform="matrix(1,0,0,1,0,0)"><path fill="rgb(1,136,255)" fill-opacity="1" d=" M3.0490000247955322,-0.29499998688697815 C0.984000027179718,0.4490000009536743 -1.0549999475479126,1.3370000123977661 -3.0490000247955322,2.367000102996826 C-1.5420000553131104,0.703000009059906 0.09000000357627869,-0.8809999823570251 1.8380000591278076,-2.367000102996826 C1.8380000591278076,-2.367000102996826 3.0490000247955322,-0.29499998688697815 3.0490000247955322,-0.29499998688697815z"></path></g></g><g transform="matrix(-0.187381312251091,0.9822872281074524,-0.9822872281074524,-0.187381312251091,320.8525695800781,174.6356658935547)" opacity="1" style="display: block;"><g opacity="1" transform="matrix(1,0,0,1,0,0)"><path fill="rgb(1,136,255)" fill-opacity="1" d=" M3.880000114440918,-0.8539999723434448 C1.2389999628067017,0.22699999809265137 -1.3569999933242798,1.4889999628067017 -3.880000114440918,2.9260001182556152 C-1.843999981880188,0.8550000190734863 0.34299999475479126,-1.1030000448226929 2.6679999828338623,-2.9260001182556152 C2.6679999828338623,-2.9260001182556152 3.880000114440918,-0.8539999723434448 3.880000114440918,-0.8539999723434448z"></path></g></g><g transform="matrix(-0.187381312251091,0.9822872281074524,-0.9822872281074524,-0.187381312251091,335.6400451660156,168.32476806640625)" opacity="1" style="display: block;"><g opacity="1" transform="matrix(1,0,0,1,0,0)"><path fill="rgb(1,136,255)" fill-opacity="1" d=" M4.729000091552734,-1.4259999990463257 C1.4989999532699585,0 -1.6640000343322754,1.6430000066757202 -4.729000091552734,3.496999979019165 C-2.1519999504089355,1.0089999437332153 0.6029999852180481,-1.3289999961853027 3.5169999599456787,-3.496999979019165 C3.5169999599456787,-3.496999979019165 4.729000091552734,-1.4259999990463257 4.729000091552734,-1.4259999990463257z"></path></g></g><g transform="matrix(-0.187381312251091,0.9822872281074524,-0.9822872281074524,-0.187381312251091,351.08477783203125,161.7330780029297)" opacity="1" style="display: block;"><g opacity="1" transform="matrix(1,0,0,1,0,0)"><path fill="rgb(1,136,255)" fill-opacity="1" d=" M5.616000175476074,-2.0230000019073486 C1.7699999809265137,-0.2370000034570694 -1.9859999418258667,1.805999994277954 -5.616000175476074,4.093999862670898 C-2.4739999771118164,1.1720000505447388 0.8740000128746033,-1.565999984741211 4.4039998054504395,-4.093999862670898 C4.4039998054504395,-4.093999862670898 5.616000175476074,-2.0230000019073486 5.616000175476074,-2.0230000019073486z"></path></g></g><g transform="matrix(-0.187381312251091,0.9822872281074524,-0.9822872281074524,-0.187381312251091,367.3075256347656,154.80926513671875)" opacity="1" style="display: block;"><g opacity="1" transform="matrix(1,0,0,1,0,0)"><path fill="rgb(1,136,255)" fill-opacity="1" d=" M6.546999931335449,-2.6500000953674316 C2.053999900817871,-0.4860000014305115 -2.322999954223633,1.9769999980926514 -6.546999931335449,4.7220001220703125 C-2.811000108718872,1.343000054359436 1.1579999923706055,-1.815999984741211 5.335000038146973,-4.7220001220703125 C5.335000038146973,-4.7220001220703125 6.546999931335449,-2.6500000953674316 6.546999931335449,-2.6500000953674316z"></path></g></g><g transform="matrix(-0.187381312251091,0.9822872281074524,-0.9822872281074524,-0.187381312251091,384.3836669921875,147.52093505859375)" opacity="1" style="display: block;"><g opacity="1" transform="matrix(1,0,0,1,0,0)"><path fill="rgb(1,136,255)" fill-opacity="1" d=" M7.5279998779296875,-3.309999942779541 C2.3540000915527344,-0.7480000257492065 -2.678999900817871,2.1559998989105225 -7.5279998779296875,5.381999969482422 C-3.1670000553131104,1.5219999551773071 1.4589999914169312,-2.078000068664551 6.315999984741211,-5.381999969482422 C6.315999984741211,-5.381999969482422 7.5279998779296875,-3.309999942779541 7.5279998779296875,-3.309999942779541z"></path></g></g><g transform="matrix(-0.187381312251091,0.9822872281074524,-0.9822872281074524,-0.187381312251091,401.397705078125,140.25941467285156)" opacity="1" style="display: block;"><g opacity="1" transform="matrix(1,0,0,1,0,0)"><path fill="rgb(1,136,255)" fill-opacity="1" d=" M8.505000114440918,-3.9679999351501465 C2.6530001163482666,-1.0089999437332153 -3.0329999923706055,2.3340001106262207 -8.505000114440918,6.039000034332275 C-3.5209999084472656,1.7000000476837158 1.7569999694824219,-2.3380000591278076 7.293000221252441,-6.039000034332275 C7.293000221252441,-6.039000034332275 8.505000114440918,-3.9679999351501465 8.505000114440918,-3.9679999351501465z"></path></g></g><g transform="matrix(-0.187381312251091,0.9822872281074524,-0.9822872281074524,-0.187381312251091,418.8726806640625,132.8018035888672)" opacity="1" style="display: block;"><g opacity="1" transform="matrix(1,0,0,1,0,0)"><path fill="rgb(1,136,255)" fill-opacity="1" d=" M9.508000373840332,-4.64300012588501 C2.9590001106262207,-1.2769999504089355 -3.3970000743865967,2.5179998874664307 -9.508000373840332,6.715000152587891 C-3.884999990463257,1.8839999437332153 2.065000057220459,-2.6070001125335693 8.29699993133545,-6.715000152587891 C8.29699993133545,-6.715000152587891 9.508000373840332,-4.64300012588501 9.508000373840332,-4.64300012588501z"></path></g></g><g transform="matrix(1,0,0,1,259.1579895019531,200.03900146484375)" opacity="1" style="display: block;"><g opacity="1" transform="matrix(1,0,0,1,0,0)"><path fill="rgb(1,136,255)" fill-opacity="1" d=" M45,0 C45,-24.85300064086914 24.85300064086914,-45 0,-45 C-24.85300064086914,-45 -45,-24.85300064086914 -45,0 C-45,24.85300064086914 -24.85300064086914,45 0,45 C24.85300064086914,45 45,24.85300064086914 45,0z"></path></g></g><g transform="matrix(1,0,0,1,0,0)" opacity="1" style="display: block;"><g opacity="1" transform="matrix(1,0,0,1,247.25799560546875,227.59100341796875)"><path stroke-linecap="round" stroke-linejoin="miter" fill-opacity="0" stroke-miterlimit="10" stroke="rgb(255,255,255)" stroke-opacity="1" stroke-width="2.748" d=" M0,5.651000022888184 C0,5.651000022888184 0,-5.651000022888184 0,-5.651000022888184"></path></g><g opacity="1" transform="matrix(1,0,0,1,276.35400390625,201.33999633789062)"><path stroke-linecap="round" stroke-linejoin="miter" fill-opacity="0" stroke-miterlimit="10" stroke="rgb(255,255,255)" stroke-opacity="1" stroke-width="2" d=" M-5.708000183105469,31.538000106811523 C-5.708000183105469,31.538000106811523 -5.708000183105469,22.270999908447266 -5.708000183105469,22.270999908447266 C-5.708000183105469,21.750999450683594 -5.2829999923706055,21.32900047302246 -4.758999824523926,21.32900047302246 C-4.758999824523926,21.32900047302246 0.9049999713897705,21.32900047302246 0.9049999713897705,21.32900047302246 C3.8440001010894775,21.32900047302246 7.919000148773193,17.892000198364258 7.919000148773193,14.324000358581543 C7.919000148773193,14.324000358581543 7.919000148773193,7.322000026702881 7.919000148773193,7.322000026702881 C7.919000148773193,6.802000045776367 8.343999862670898,6.38100004196167 8.868000030517578,6.38100004196167 C8.868000030517578,6.38100004196167 11.918999671936035,6.38100004196167 11.918999671936035,6.38100004196167 C13.38599967956543,6.38100004196167 14.29800033569336,4.800000190734863 13.557000160217285,3.5439999103546143 C13.557000160217285,3.5439999103546143 5.88700008392334,-9.446000099182129 5.88700008392334,-9.446000099182129 C5.88700008392334,-9.446000099182129 10.456000328063965,-31.538000106811523 -13.819999694824219,-31.538000106811523"></path></g><g opacity="1" transform="matrix(1,0,0,1,249.2790069580078,192.40699768066406)"><path stroke-linecap="butt" stroke-linejoin="miter" fill-opacity="0" stroke-miterlimit="10" stroke="rgb(255,255,255)" stroke-opacity="1" stroke-width="2" d=" M9.550999641418457,0 C9.550999641418457,-12.484999656677246 5.275000095367432,-22.606000900268555 0,-22.606000900268555 C-5.275000095367432,-22.606000900268555 -9.550999641418457,-12.484999656677246 -9.550999641418457,0 C-9.550999641418457,12.484999656677246 -5.275000095367432,22.606000900268555 0,22.606000900268555 C5.275000095367432,22.606000900268555 9.550999641418457,12.484999656677246 9.550999641418457,0z"></path></g><g opacity="1" transform="matrix(1,0,0,1,249.2790069580078,192.40699768066406)"><path stroke-linecap="butt" stroke-linejoin="miter" fill-opacity="0" stroke-miterlimit="10" stroke="rgb(255,255,255)" stroke-opacity="1" stroke-width="2" d=" M-4.776000022888184,-8.210000038146973 C-15.670000076293945,-1.968000054359436 -22.361000061035156,6.769000053405762 -19.724000930786133,11.303000450134277 C-17.086999893188477,15.836999893188477 -6.118000030517578,14.45199966430664 4.776000022888184,8.210000038146973 C15.670000076293945,1.968000054359436 22.361000061035156,-6.769000053405762 19.724000930786133,-11.303000450134277 C17.086999893188477,-15.836999893188477 6.118000030517578,-14.45199966430664 -4.776000022888184,-8.210000038146973z"></path></g><g opacity="1" transform="matrix(1,0,0,1,249.2790069580078,192.40699768066406)"><path stroke-linecap="butt" stroke-linejoin="miter" fill-opacity="0" stroke-miterlimit="10" stroke="rgb(255,255,255)" stroke-opacity="1" stroke-width="2" d=" M-4.776000022888184,8.210000038146973 C6.118000030517578,14.45199966430664 17.086999893188477,15.836999893188477 19.724000930786133,11.303000450134277 C22.361000061035156,6.769000053405762 15.670000076293945,-1.968000054359436 4.776000022888184,-8.210000038146973 C-6.118000030517578,-14.45199966430664 -17.086999893188477,-15.836999893188477 -19.724000930786133,-11.303000450134277 C-22.361000061035156,-6.769000053405762 -15.670000076293945,1.968000054359436 -4.776000022888184,8.210000038146973z"></path></g><g opacity="1" transform="matrix(1,0,0,1,249.2790069580078,192.40699768066406)"><path fill="rgb(255,255,255)" fill-opacity="1" d=" M1.9930000305175781,0 C1.9930000305175781,-1.0920000076293945 1.100000023841858,-1.9780000448226929 0,-1.9780000448226929 C-1.100000023841858,-1.9780000448226929 -1.9930000305175781,-1.0920000076293945 -1.9930000305175781,0 C-1.9930000305175781,1.0920000076293945 -1.100000023841858,1.9780000448226929 0,1.9780000448226929 C1.100000023841858,1.9780000448226929 1.9930000305175781,1.0920000076293945 1.9930000305175781,0z"></path></g></g><g transform="matrix(1,0,0,1,259.1579895019531,200.03900146484375)" opacity="1" style="display: block;"><g opacity="1" transform="matrix(1,0,0,1,0,0)"><path stroke-linecap="butt" stroke-linejoin="miter" fill-opacity="0" stroke-miterlimit="10" stroke="rgb(1,136,255)" stroke-opacity="1" stroke-width="2" d=" M193.82000732421875,0 C193.82000732421875,-107.04399871826172 107.04399871826172,-193.82000732421875 0,-193.82000732421875 C-107.04399871826172,-193.82000732421875 -193.82000732421875,-107.04399871826172 -193.82000732421875,0 C-193.82000732421875,107.04399871826172 -107.04399871826172,193.82000732421875 0,193.82000732421875 C107.04399871826172,193.82000732421875 193.82000732421875,107.04399871826172 193.82000732421875,0z"></path></g></g></g></svg>